#!OML:ASF H:\Not Pregnant\Project 1\Capture day 1\Session 1\non-pregnant.ASF
:FULLY-SPECIFIED
:DEGREES
622
root 4.17466 15.8575 19.5433 11.5868 9.67576 -3.94914
lowerback -2.6896 2.07472 2.97269
upperback -8.20072 2.81535 -0.936854
thorax -6.85713 1.19171 -2.7308
lowerneck 16.1359 -11.5472 -29.6884
upperneck -13.9472 -19.1159 45.4118
head 2.38605 -12.0117 23.3221
rclavicle 2.17669e-014 1.82882e-014
rhumerus -1.6888 35.3146 -105.74
rradius 98.6362
rwrist -26.101
rhand -28.2253 -24.9442
rfingers 7.12502
rthumb -1.60354 -54.9179
lclavicle 2.17669e-014 1.82882e-014
lhumerus -15.4546 -26.5636 100.079
lradius 110.469
lwrist 29.1332
lhand -41.7348 -42.7859
lfingers 7.12502
lthumb -14.6397 -13.3227
rfemur -35.7791 7.77533 23.0583
rtibia 35.6934
rfoot -12.941 12.865
rtoes -22.3388
lfemur -4.44853 -7.53514 -13.785
ltibia 25.567
lfoot -22.2865 -0.057119
ltoes -35.1918
623
root 4.16627 15.8447 19.5379 11.3408 9.91381 -4.05534
lowerback -2.56078 2.14232 2.95288
upperback -7.97117 2.90737 -0.903804
thorax -6.6788 1.24596 -2.68608
lowerneck 16.202 -11.5582 -29.7292
upperneck -13.7923 -19.1966 45.4289
head 2.45864 -12.0588 23.33
rclavicle 4.06018e-014 7.15625e-015
rhumerus -2.23088 35.0647 -105.537
rradius 98.6325
rwrist -26.6428
rhand -28.6844 -24.5592
rfingers 7.12502
rthumb -2.04691 -54.5291
lclavicle 4.06018e-014 7.15625e-015
lhumerus -15.6919 -27.4073 99.9958
lradius 110.017
lwrist 29.0664
lhand -41.6653 -42.8504
lfingers 7.12502
lthumb -14.5727 -13.3823
rfemur -35.6241 7.74503 23.2067
rtibia 35.8589
rfoot -13.0271 12.6655
rtoes -22.3846
lfemur -4.65509 -7.71203 -13.5744
ltibia 26.2748
lfoot -22.5335 -0.257078
ltoes -35.2289
624
root 4.15884 15.8322 19.5317 11.0977 10.1635 -4.17775
lowerback -2.43378 2.19523 2.94284
upperback -7.73301 2.98073 -0.845295
thorax -6.4931 1.29127 -2.61947
lowerneck 16.248 -11.5683 -29.7823
upperneck -13.6704 -19.2648 45.4426
head 2.52277 -12.0977 23.3394
rclavicle 7.70291e-015 2.8625e-014
rhumerus -2.72604 34.841 -105.331
rradius 98.6517
rwrist -26.7921
rhand -29.0013 -24.0862
rfingers 7.12502
rthumb -2.35297 -54.0529
lclavicle 7.70291e-015 2.8625e-014
lhumerus -15.8977 -28.2361 99.9268
lradius 109.706
lwrist 29.0219
lhand -41.5519 -43.063
lfingers 7.12502
lthumb -14.4634 -13.5871
rfemur -35.4677 7.68108 23.372
rtibia 36.0098
rfoot -13.1111 12.4982
rtoes -22.3752
lfemur -4.86784 -7.89876 -13.347
ltibia 26.9718
lfoot -22.7864 -0.461694
ltoes -35.2791
625
root 4.15202 15.82 19.5244 10.8674 10.4221 -4.32013
lowerback -2.29248 2.23079 2.94039
upperback -7.50663 3.03288 -0.758444
thorax -6.33164 1.32568 -2.52819
lowerneck 16.2757 -11.572 -29.8526
upperneck -13.565 -19.3181 45.4411
head 2.57894 -12.1253 23.3441
rclavicle 1.41634e-014 0
rhumerus -3.18765 34.6413 -105.148
rradius 98.6952
rwrist -26.6274
rhand -29.1757 -23.5419
rfingers 7.12502
rthumb -2.52135 -53.5067
lclavicle 1.41634e-014 0
lhumerus -16.0976 -29.006 99.8886
lradius 109.522
lwrist 28.9181
lhand -41.4678 -43.3655
lfingers 7.12502
lthumb -14.3824 -13.8838
rfemur -35.3241 7.59553 23.5575
rtibia 36.1438
rfoot -13.1913 12.3503
rtoes -22.3642
lfemur -5.09709 -8.08801 -13.0949
ltibia 27.65
lfoot -23.0369 -0.666803
ltoes -35.3794
626
root 4.14564 15.8082 19.5156 10.6616 10.6855 -4.47601
lowerback -2.17207 2.24731 2.90938
upperback -7.27689 3.0605 -0.621971
thorax -6.16074 1.35115 -2.36789
lowerneck 16.2791 -11.5687 -29.9511
upperneck -13.5002 -19.349 45.4161
head 2.61861 -12.1367 23.3414
rclavicle -1.34677e-014 -4.77083e-015
rhumerus -3.56313 34.4901 -104.94
rradius 98.7538
rwrist -26.2437
rhand -29.2077 -22.9482
rfingers 7.12502
rthumb -2.55234 -52.9127
lclavicle -1.34677e-014 -4.77083e-015
lhumerus -16.2465 -29.6731 99.8991
lradius 109.438
lwrist 28.6972
lhand -41.4838 -43.7257
lfingers 7.12502
lthumb -14.3978 -14.2451
rfemur -35.2099 7.49724 23.7532
rtibia 36.2632
rfoot -13.2575 12.2161
rtoes -22.3486
lfemur -5.35292 -8.27426 -12.8241
ltibia 28.3042
lfoot -23.2781 -0.869959
ltoes -35.5371
627
root 4.14043 15.797 19.5066 10.4826 10.958 -4.64495
lowerback -2.06138 2.24468 2.90275
upperback -7.06183 3.06307 -0.47408
thorax -6.00175 1.3624 -2.20902
lowerneck 16.264 -11.5593 -30.0457
upperneck -13.4486 -19.3595 45.3719
head 2.64434 -12.1339 23.3267
rclavicle -5.46658e-014 -2.70347e-014
rhumerus -3.85622 34.3504 -104.767
rradius 98.8212
rwrist -25.7346
rhand -29.0982 -22.3122
rfingers 7.12502
rthumb -2.44651 -52.2779
lclavicle -5.46658e-014 -2.70347e-014
lhumerus -16.3706 -30.249 99.9228
lradius 109.444
lwrist 28.3708
lhand -41.5995 -44.1637
lfingers 7.12502
lthumb -14.5093 -14.6911
rfemur -35.123 7.36378 23.9614
rtibia 36.3701
rfoot -13.3198 12.1127
rtoes -22.317
lfemur -5.62933 -8.4579 -12.5387
ltibia 28.9302
lfoot -23.5165 -1.06682
ltoes -35.7625
628
root 4.13602 15.7863 19.4969 10.3375 11.2321 -4.82656
lowerback -1.9483 2.22624 2.92325
upperback -6.87885 3.04561 -0.323702
thorax -5.87898 1.36102 -2.06355
lowerneck 16.25 -11.5403 -30.1276
upperneck -13.3985 -19.3499 45.3063
head 2.65329 -12.1188 23.2998
rclavicle -3.03147e-014 1.98785e-014
rhumerus -4.08367 34.2008 -104.655
rradius 98.9048
rwrist -25.1899
rhand -28.8914 -21.6451
rfingers 7.12502
rthumb -2.24687 -51.613
lclavicle -3.03147e-014 1.98785e-014
lhumerus -16.4927 -30.7344 99.9652
lradius 109.533
lwrist 27.9975
lhand -41.7962 -44.6844
lfingers 7.12502
lthumb -14.6988 -15.2255
rfemur -35.0781 7.21202 24.1792
rtibia 36.4706
rfoot -13.3736 12.0271
rtoes -22.296
lfemur -5.93136 -8.62393 -12.2376
ltibia 29.5238
lfoot -23.7505 -1.24722
ltoes -36.0631
